<?xml version="1.0" encoding="UTF-8"?><svg xmlns="http://www.w3.org/2000/svg" xmlns:xlink="http://www.w3.org/1999/xlink" stroke-dasharray="none" shape-rendering="auto" font-family="'Dialog'" width="1408" text-rendering="auto" fill-opacity="1" contentScriptType="text/ecmascript" color-interpolation="auto" color-rendering="auto" preserveAspectRatio="xMidYMid meet" font-size="12" fill="black" stroke="black" image-rendering="auto" stroke-miterlimit="10" zoomAndPan="magnify" version="1.0" stroke-linecap="square" stroke-linejoin="miter" contentStyleType="text/css" font-style="normal" height="579" stroke-width="1" stroke-dashoffset="0" font-weight="normal" stroke-opacity="1">
<!--Generated by the Batik Graphics2D SVG Generator-->
<defs id="genericDefs"/>
<g>
<defs id="defs1">
<clipPath clipPathUnits="userSpaceOnUse" id="clipPath1">
<path d="M74 9 L1353 9 L1353 533 L74 533 L74 9 Z"/>
</clipPath>
<clipPath clipPathUnits="userSpaceOnUse" id="clipPath2">
<path d="M-1 -1 L1409 -1 L1409 580 L-1 580 L-1 -1 Z"/>
</clipPath>
<clipPath clipPathUnits="userSpaceOnUse" id="clipPath3">
<path d="M74 531 L1353 531 L1353 580 L74 580 L74 531 Z"/>
</clipPath>
</defs>
<g font-size="15" fill="white" text-rendering="geometricPrecision" font-family="'Segoe UI'" stroke-linejoin="round" stroke="white" stroke-width="0" stroke-miterlimit="0">
<rect x="75" y="10" clip-path="url(#clipPath1)" width="1277" height="522" stroke="none"/>
</g>
<g font-size="15" stroke-linecap="butt" fill="rgb(204,204,204)" text-rendering="geometricPrecision" font-family="'Segoe UI'" stroke-dasharray="3,3" stroke="rgb(204,204,204)">
<line clip-path="url(#clipPath1)" fill="none" x1="75" x2="1352" y1="532" y2="532"/>
<line clip-path="url(#clipPath1)" fill="none" x1="75" x2="1352" y1="474" y2="474"/>
<line clip-path="url(#clipPath1)" fill="none" x1="75" x2="1352" y1="417" y2="417"/>
<line clip-path="url(#clipPath1)" fill="none" x1="75" x2="1352" y1="359" y2="359"/>
<line clip-path="url(#clipPath1)" fill="none" x1="75" x2="1352" y1="302" y2="302"/>
<line clip-path="url(#clipPath1)" fill="none" x1="75" x2="1352" y1="244" y2="244"/>
<line clip-path="url(#clipPath1)" fill="none" x1="75" x2="1352" y1="187" y2="187"/>
<line clip-path="url(#clipPath1)" fill="none" x1="75" x2="1352" y1="129" y2="129"/>
<line clip-path="url(#clipPath1)" fill="none" x1="75" x2="1352" y1="72" y2="72"/>
<line clip-path="url(#clipPath1)" fill="none" x1="75" x2="1352" y1="14" y2="14"/>
<rect x="500" y="57" clip-path="url(#clipPath1)" fill="rgb(0,0,139)" width="425" height="474" stroke="none"/>
<rect x="500" y="57" clip-path="url(#clipPath1)" fill="none" width="425" stroke-dasharray="none" height="474"/>
<rect x="75" y="10" clip-path="url(#clipPath2)" fill="none" width="1277" stroke-dasharray="none" height="522" stroke="black"/>
<line clip-path="url(#clipPath2)" fill="none" x1="76" x2="1351" y1="532" y2="532" stroke-dasharray="none"/>
</g>
<g text-rendering="geometricPrecision" font-size="17" font-family="'Arial'" stroke-linecap="butt">
<line clip-path="url(#clipPath2)" fill="none" x1="73" x2="73" y1="10" y2="532"/>
<line clip-path="url(#clipPath2)" fill="none" x1="1354" x2="1354" y1="10" y2="532"/>
<line clip-path="url(#clipPath2)" fill="none" x1="69" x2="73" y1="532" y2="532"/>
<line clip-path="url(#clipPath2)" fill="none" x1="1358" x2="1354" y1="532" y2="532"/>
<text font-size="13" x="62" y="536" clip-path="url(#clipPath2)" stroke="none" xml:space="preserve">0</text>
<text font-size="13" x="1361" y="536" clip-path="url(#clipPath2)" stroke="none" xml:space="preserve">0</text>
<line clip-path="url(#clipPath2)" fill="none" x1="71" x2="73" y1="503" y2="503"/>
<line clip-path="url(#clipPath2)" fill="none" x1="1356" x2="1354" y1="503" y2="503"/>
<line clip-path="url(#clipPath2)" fill="none" x1="69" x2="73" y1="474" y2="474"/>
<line clip-path="url(#clipPath2)" fill="none" x1="1358" x2="1354" y1="474" y2="474"/>
<text font-size="13" x="38" y="478" clip-path="url(#clipPath2)" stroke="none" xml:space="preserve">20000</text>
<text font-size="13" x="1361" y="478" clip-path="url(#clipPath2)" stroke="none" xml:space="preserve">20000</text>
<line clip-path="url(#clipPath2)" fill="none" x1="71" x2="73" y1="445" y2="445"/>
<line clip-path="url(#clipPath2)" fill="none" x1="1356" x2="1354" y1="445" y2="445"/>
<line clip-path="url(#clipPath2)" fill="none" x1="69" x2="73" y1="417" y2="417"/>
<line clip-path="url(#clipPath2)" fill="none" x1="1358" x2="1354" y1="417" y2="417"/>
<text font-size="13" x="38" y="421" clip-path="url(#clipPath2)" stroke="none" xml:space="preserve">40000</text>
<text font-size="13" x="1361" y="421" clip-path="url(#clipPath2)" stroke="none" xml:space="preserve">40000</text>
<line clip-path="url(#clipPath2)" fill="none" x1="71" x2="73" y1="388" y2="388"/>
<line clip-path="url(#clipPath2)" fill="none" x1="1356" x2="1354" y1="388" y2="388"/>
<line clip-path="url(#clipPath2)" fill="none" x1="69" x2="73" y1="359" y2="359"/>
<line clip-path="url(#clipPath2)" fill="none" x1="1358" x2="1354" y1="359" y2="359"/>
<text font-size="13" x="38" y="363" clip-path="url(#clipPath2)" stroke="none" xml:space="preserve">60000</text>
<text font-size="13" x="1361" y="363" clip-path="url(#clipPath2)" stroke="none" xml:space="preserve">60000</text>
<line clip-path="url(#clipPath2)" fill="none" x1="71" x2="73" y1="330" y2="330"/>
<line clip-path="url(#clipPath2)" fill="none" x1="1356" x2="1354" y1="330" y2="330"/>
<line clip-path="url(#clipPath2)" fill="none" x1="69" x2="73" y1="302" y2="302"/>
<line clip-path="url(#clipPath2)" fill="none" x1="1358" x2="1354" y1="302" y2="302"/>
<text font-size="13" x="38" y="306" clip-path="url(#clipPath2)" stroke="none" xml:space="preserve">80000</text>
<text font-size="13" x="1361" y="306" clip-path="url(#clipPath2)" stroke="none" xml:space="preserve">80000</text>
<line clip-path="url(#clipPath2)" fill="none" x1="71" x2="73" y1="273" y2="273"/>
<line clip-path="url(#clipPath2)" fill="none" x1="1356" x2="1354" y1="273" y2="273"/>
<line clip-path="url(#clipPath2)" fill="none" x1="69" x2="73" y1="244" y2="244"/>
<line clip-path="url(#clipPath2)" fill="none" x1="1358" x2="1354" y1="244" y2="244"/>
<text font-size="13" x="32" y="248" clip-path="url(#clipPath2)" stroke="none" xml:space="preserve">100000</text>
<text font-size="13" x="1361" y="248" clip-path="url(#clipPath2)" stroke="none" xml:space="preserve">100000</text>
<line clip-path="url(#clipPath2)" fill="none" x1="71" x2="73" y1="215" y2="215"/>
<line clip-path="url(#clipPath2)" fill="none" x1="1356" x2="1354" y1="215" y2="215"/>
<line clip-path="url(#clipPath2)" fill="none" x1="69" x2="73" y1="187" y2="187"/>
<line clip-path="url(#clipPath2)" fill="none" x1="1358" x2="1354" y1="187" y2="187"/>
<text font-size="13" x="32" y="191" clip-path="url(#clipPath2)" stroke="none" xml:space="preserve">120000</text>
<text font-size="13" x="1361" y="191" clip-path="url(#clipPath2)" stroke="none" xml:space="preserve">120000</text>
<line clip-path="url(#clipPath2)" fill="none" x1="71" x2="73" y1="158" y2="158"/>
<line clip-path="url(#clipPath2)" fill="none" x1="1356" x2="1354" y1="158" y2="158"/>
<line clip-path="url(#clipPath2)" fill="none" x1="69" x2="73" y1="129" y2="129"/>
<line clip-path="url(#clipPath2)" fill="none" x1="1358" x2="1354" y1="129" y2="129"/>
<text font-size="13" x="32" y="133" clip-path="url(#clipPath2)" stroke="none" xml:space="preserve">140000</text>
<text font-size="13" x="1361" y="133" clip-path="url(#clipPath2)" stroke="none" xml:space="preserve">140000</text>
<line clip-path="url(#clipPath2)" fill="none" x1="71" x2="73" y1="100" y2="100"/>
<line clip-path="url(#clipPath2)" fill="none" x1="1356" x2="1354" y1="100" y2="100"/>
<line clip-path="url(#clipPath2)" fill="none" x1="69" x2="73" y1="72" y2="72"/>
<line clip-path="url(#clipPath2)" fill="none" x1="1358" x2="1354" y1="72" y2="72"/>
<text font-size="13" x="32" y="76" clip-path="url(#clipPath2)" stroke="none" xml:space="preserve">160000</text>
<text font-size="13" x="1361" y="76" clip-path="url(#clipPath2)" stroke="none" xml:space="preserve">160000</text>
<line clip-path="url(#clipPath2)" fill="none" x1="71" x2="73" y1="43" y2="43"/>
<line clip-path="url(#clipPath2)" fill="none" x1="1356" x2="1354" y1="43" y2="43"/>
<line clip-path="url(#clipPath2)" fill="none" x1="69" x2="73" y1="14" y2="14"/>
<line clip-path="url(#clipPath2)" fill="none" x1="1358" x2="1354" y1="14" y2="14"/>
<text font-size="13" x="32" y="18" clip-path="url(#clipPath2)" stroke="none" xml:space="preserve">180000</text>
<text font-size="13" x="1361" y="18" clip-path="url(#clipPath2)" stroke="none" xml:space="preserve">180000</text>
<line clip-path="url(#clipPath3)" fill="none" x1="500" x2="925" y1="536" y2="536"/>
<text xml:space="preserve" x="681" y="575" clip-path="url(#clipPath3)" stroke="none">tempo(s)</text>
</g>
</g>
</svg>
