<?xml version="1.0" encoding="UTF-8"?><svg xmlns="http://www.w3.org/2000/svg" xmlns:xlink="http://www.w3.org/1999/xlink" stroke-dasharray="none" shape-rendering="auto" font-family="'Dialog'" width="1408" text-rendering="auto" fill-opacity="1" contentScriptType="text/ecmascript" color-interpolation="auto" color-rendering="auto" preserveAspectRatio="xMidYMid meet" font-size="12" fill="black" stroke="black" image-rendering="auto" stroke-miterlimit="10" zoomAndPan="magnify" version="1.0" stroke-linecap="square" stroke-linejoin="miter" contentStyleType="text/css" font-style="normal" height="579" stroke-width="1" stroke-dashoffset="0" font-weight="normal" stroke-opacity="1">
<!--Generated by the Batik Graphics2D SVG Generator-->
<defs id="genericDefs"/>
<g>
<defs id="defs1">
<clipPath clipPathUnits="userSpaceOnUse" id="clipPath1">
<path d="M74 9 L1353 9 L1353 533 L74 533 L74 9 Z"/>
</clipPath>
<clipPath clipPathUnits="userSpaceOnUse" id="clipPath2">
<path d="M-1 -1 L1409 -1 L1409 580 L-1 580 L-1 -1 Z"/>
</clipPath>
<clipPath clipPathUnits="userSpaceOnUse" id="clipPath3">
<path d="M74 531 L1353 531 L1353 580 L74 580 L74 531 Z"/>
</clipPath>
</defs>
<g font-size="15" fill="white" text-rendering="geometricPrecision" font-family="'Segoe UI'" stroke-linejoin="round" stroke="white" stroke-width="0" stroke-miterlimit="0">
<rect x="75" y="10" clip-path="url(#clipPath1)" width="1277" height="522" stroke="none"/>
</g>
<g font-size="15" stroke-linecap="butt" fill="rgb(204,204,204)" text-rendering="geometricPrecision" font-family="'Segoe UI'" stroke-dasharray="3,3" stroke="rgb(204,204,204)">
<line clip-path="url(#clipPath1)" fill="none" x1="75" x2="1352" y1="532" y2="532"/>
<line clip-path="url(#clipPath1)" fill="none" x1="75" x2="1352" y1="475" y2="475"/>
<line clip-path="url(#clipPath1)" fill="none" x1="75" x2="1352" y1="419" y2="419"/>
<line clip-path="url(#clipPath1)" fill="none" x1="75" x2="1352" y1="363" y2="363"/>
<line clip-path="url(#clipPath1)" fill="none" x1="75" x2="1352" y1="307" y2="307"/>
<line clip-path="url(#clipPath1)" fill="none" x1="75" x2="1352" y1="250" y2="250"/>
<line clip-path="url(#clipPath1)" fill="none" x1="75" x2="1352" y1="194" y2="194"/>
<line clip-path="url(#clipPath1)" fill="none" x1="75" x2="1352" y1="138" y2="138"/>
<line clip-path="url(#clipPath1)" fill="none" x1="75" x2="1352" y1="82" y2="82"/>
<line clip-path="url(#clipPath1)" fill="none" x1="75" x2="1352" y1="25" y2="25"/>
<rect x="500" y="57" clip-path="url(#clipPath1)" fill="rgb(0,0,139)" width="425" height="474" stroke="none"/>
<rect x="500" y="57" clip-path="url(#clipPath1)" fill="none" width="425" stroke-dasharray="none" height="474"/>
<rect x="75" y="10" clip-path="url(#clipPath2)" fill="none" width="1277" stroke-dasharray="none" height="522" stroke="black"/>
<line clip-path="url(#clipPath2)" fill="none" x1="76" x2="1351" y1="532" y2="532" stroke-dasharray="none"/>
</g>
<g text-rendering="geometricPrecision" font-size="17" font-family="'Arial'" stroke-linecap="butt">
<line clip-path="url(#clipPath2)" fill="none" x1="73" x2="73" y1="10" y2="532"/>
<line clip-path="url(#clipPath2)" fill="none" x1="1354" x2="1354" y1="10" y2="532"/>
<line clip-path="url(#clipPath2)" fill="none" x1="69" x2="73" y1="532" y2="532"/>
<line clip-path="url(#clipPath2)" fill="none" x1="1358" x2="1354" y1="532" y2="532"/>
<text font-size="13" x="62" y="536" clip-path="url(#clipPath2)" stroke="none" xml:space="preserve">0</text>
<text font-size="13" x="1361" y="536" clip-path="url(#clipPath2)" stroke="none" xml:space="preserve">0</text>
<line clip-path="url(#clipPath2)" fill="none" x1="71" x2="73" y1="503" y2="503"/>
<line clip-path="url(#clipPath2)" fill="none" x1="1356" x2="1354" y1="503" y2="503"/>
<line clip-path="url(#clipPath2)" fill="none" x1="69" x2="73" y1="475" y2="475"/>
<line clip-path="url(#clipPath2)" fill="none" x1="1358" x2="1354" y1="475" y2="475"/>
<text font-size="13" x="38" y="479" clip-path="url(#clipPath2)" stroke="none" xml:space="preserve">20000</text>
<text font-size="13" x="1361" y="479" clip-path="url(#clipPath2)" stroke="none" xml:space="preserve">20000</text>
<line clip-path="url(#clipPath2)" fill="none" x1="71" x2="73" y1="447" y2="447"/>
<line clip-path="url(#clipPath2)" fill="none" x1="1356" x2="1354" y1="447" y2="447"/>
<line clip-path="url(#clipPath2)" fill="none" x1="69" x2="73" y1="419" y2="419"/>
<line clip-path="url(#clipPath2)" fill="none" x1="1358" x2="1354" y1="419" y2="419"/>
<text font-size="13" x="38" y="423" clip-path="url(#clipPath2)" stroke="none" xml:space="preserve">40000</text>
<text font-size="13" x="1361" y="423" clip-path="url(#clipPath2)" stroke="none" xml:space="preserve">40000</text>
<line clip-path="url(#clipPath2)" fill="none" x1="71" x2="73" y1="391" y2="391"/>
<line clip-path="url(#clipPath2)" fill="none" x1="1356" x2="1354" y1="391" y2="391"/>
<line clip-path="url(#clipPath2)" fill="none" x1="69" x2="73" y1="363" y2="363"/>
<line clip-path="url(#clipPath2)" fill="none" x1="1358" x2="1354" y1="363" y2="363"/>
<text font-size="13" x="38" y="367" clip-path="url(#clipPath2)" stroke="none" xml:space="preserve">60000</text>
<text font-size="13" x="1361" y="367" clip-path="url(#clipPath2)" stroke="none" xml:space="preserve">60000</text>
<line clip-path="url(#clipPath2)" fill="none" x1="71" x2="73" y1="335" y2="335"/>
<line clip-path="url(#clipPath2)" fill="none" x1="1356" x2="1354" y1="335" y2="335"/>
<line clip-path="url(#clipPath2)" fill="none" x1="69" x2="73" y1="307" y2="307"/>
<line clip-path="url(#clipPath2)" fill="none" x1="1358" x2="1354" y1="307" y2="307"/>
<text font-size="13" x="38" y="311" clip-path="url(#clipPath2)" stroke="none" xml:space="preserve">80000</text>
<text font-size="13" x="1361" y="311" clip-path="url(#clipPath2)" stroke="none" xml:space="preserve">80000</text>
<line clip-path="url(#clipPath2)" fill="none" x1="71" x2="73" y1="278" y2="278"/>
<line clip-path="url(#clipPath2)" fill="none" x1="1356" x2="1354" y1="278" y2="278"/>
<line clip-path="url(#clipPath2)" fill="none" x1="69" x2="73" y1="250" y2="250"/>
<line clip-path="url(#clipPath2)" fill="none" x1="1358" x2="1354" y1="250" y2="250"/>
<text font-size="13" x="32" y="254" clip-path="url(#clipPath2)" stroke="none" xml:space="preserve">100000</text>
<text font-size="13" x="1361" y="254" clip-path="url(#clipPath2)" stroke="none" xml:space="preserve">100000</text>
<line clip-path="url(#clipPath2)" fill="none" x1="71" x2="73" y1="222" y2="222"/>
<line clip-path="url(#clipPath2)" fill="none" x1="1356" x2="1354" y1="222" y2="222"/>
<line clip-path="url(#clipPath2)" fill="none" x1="69" x2="73" y1="194" y2="194"/>
<line clip-path="url(#clipPath2)" fill="none" x1="1358" x2="1354" y1="194" y2="194"/>
<text font-size="13" x="32" y="198" clip-path="url(#clipPath2)" stroke="none" xml:space="preserve">120000</text>
<text font-size="13" x="1361" y="198" clip-path="url(#clipPath2)" stroke="none" xml:space="preserve">120000</text>
<line clip-path="url(#clipPath2)" fill="none" x1="71" x2="73" y1="166" y2="166"/>
<line clip-path="url(#clipPath2)" fill="none" x1="1356" x2="1354" y1="166" y2="166"/>
<line clip-path="url(#clipPath2)" fill="none" x1="69" x2="73" y1="138" y2="138"/>
<line clip-path="url(#clipPath2)" fill="none" x1="1358" x2="1354" y1="138" y2="138"/>
<text font-size="13" x="32" y="142" clip-path="url(#clipPath2)" stroke="none" xml:space="preserve">140000</text>
<text font-size="13" x="1361" y="142" clip-path="url(#clipPath2)" stroke="none" xml:space="preserve">140000</text>
<line clip-path="url(#clipPath2)" fill="none" x1="71" x2="73" y1="110" y2="110"/>
<line clip-path="url(#clipPath2)" fill="none" x1="1356" x2="1354" y1="110" y2="110"/>
<line clip-path="url(#clipPath2)" fill="none" x1="69" x2="73" y1="82" y2="82"/>
<line clip-path="url(#clipPath2)" fill="none" x1="1358" x2="1354" y1="82" y2="82"/>
<text font-size="13" x="32" y="86" clip-path="url(#clipPath2)" stroke="none" xml:space="preserve">160000</text>
<text font-size="13" x="1361" y="86" clip-path="url(#clipPath2)" stroke="none" xml:space="preserve">160000</text>
<line clip-path="url(#clipPath2)" fill="none" x1="71" x2="73" y1="54" y2="54"/>
<line clip-path="url(#clipPath2)" fill="none" x1="1356" x2="1354" y1="54" y2="54"/>
<line clip-path="url(#clipPath2)" fill="none" x1="69" x2="73" y1="25" y2="25"/>
<line clip-path="url(#clipPath2)" fill="none" x1="1358" x2="1354" y1="25" y2="25"/>
<text font-size="13" x="32" y="29" clip-path="url(#clipPath2)" stroke="none" xml:space="preserve">180000</text>
<text font-size="13" x="1361" y="29" clip-path="url(#clipPath2)" stroke="none" xml:space="preserve">180000</text>
<line clip-path="url(#clipPath3)" fill="none" x1="500" x2="925" y1="536" y2="536"/>
<text xml:space="preserve" x="681" y="575" clip-path="url(#clipPath3)" stroke="none">tempo(s)</text>
</g>
</g>
</svg>
