<?xml version="1.0" encoding="UTF-8"?><svg xmlns="http://www.w3.org/2000/svg" xmlns:xlink="http://www.w3.org/1999/xlink" stroke-dasharray="none" shape-rendering="auto" font-family="'Dialog'" width="1408" text-rendering="auto" fill-opacity="1" contentScriptType="text/ecmascript" color-interpolation="auto" color-rendering="auto" preserveAspectRatio="xMidYMid meet" font-size="12" fill="black" stroke="black" image-rendering="auto" stroke-miterlimit="10" zoomAndPan="magnify" version="1.0" stroke-linecap="square" stroke-linejoin="miter" contentStyleType="text/css" font-style="normal" height="579" stroke-width="1" stroke-dashoffset="0" font-weight="normal" stroke-opacity="1">
<!--Generated by the Batik Graphics2D SVG Generator-->
<defs id="genericDefs"/>
<g>
<defs id="defs1">
<clipPath clipPathUnits="userSpaceOnUse" id="clipPath1">
<path d="M55 9 L1353 9 L1353 552 L55 552 L55 9 Z"/>
</clipPath>
<clipPath clipPathUnits="userSpaceOnUse" id="clipPath2">
<path d="M-1 -1 L1409 -1 L1409 580 L-1 580 L-1 -1 Z"/>
</clipPath>
<clipPath clipPathUnits="userSpaceOnUse" id="clipPath3">
<path d="M55 550 L1353 550 L1353 580 L55 580 L55 550 Z"/>
</clipPath>
</defs>
<g font-size="15" fill="white" text-rendering="geometricPrecision" font-family="'Segoe UI'" stroke-linejoin="round" stroke="white" stroke-width="0" stroke-miterlimit="0">
<rect x="56" y="10" clip-path="url(#clipPath1)" width="1296" height="541" stroke="none"/>
</g>
<g font-size="15" stroke-linecap="butt" fill="rgb(204,204,204)" text-rendering="geometricPrecision" font-family="'Segoe UI'" stroke-dasharray="3,3" stroke="rgb(204,204,204)">
<line clip-path="url(#clipPath1)" fill="none" x1="56" x2="1352" y1="551" y2="551"/>
<line clip-path="url(#clipPath1)" fill="none" x1="56" x2="1352" y1="477" y2="477"/>
<line clip-path="url(#clipPath1)" fill="none" x1="56" x2="1352" y1="404" y2="404"/>
<line clip-path="url(#clipPath1)" fill="none" x1="56" x2="1352" y1="330" y2="330"/>
<line clip-path="url(#clipPath1)" fill="none" x1="56" x2="1352" y1="257" y2="257"/>
<line clip-path="url(#clipPath1)" fill="none" x1="56" x2="1352" y1="183" y2="183"/>
<line clip-path="url(#clipPath1)" fill="none" x1="56" x2="1352" y1="110" y2="110"/>
<line clip-path="url(#clipPath1)" fill="none" x1="56" x2="1352" y1="36" y2="36"/>
<rect x="488" y="59" clip-path="url(#clipPath1)" fill="rgb(0,0,139)" width="432" height="491" stroke="none"/>
<rect x="488" y="59" clip-path="url(#clipPath1)" fill="none" width="432" stroke-dasharray="none" height="491"/>
<rect x="56" y="10" clip-path="url(#clipPath2)" fill="none" width="1296" stroke-dasharray="none" height="541" stroke="black"/>
<line clip-path="url(#clipPath2)" fill="none" x1="57" x2="1351" y1="551" y2="551" stroke-dasharray="none"/>
</g>
<g text-rendering="geometricPrecision" font-size="17" font-family="'Arial'" stroke-linecap="butt">
<line clip-path="url(#clipPath2)" fill="none" x1="54" x2="54" y1="10" y2="551"/>
<line clip-path="url(#clipPath2)" fill="none" x1="1354" x2="1354" y1="10" y2="551"/>
<line clip-path="url(#clipPath2)" fill="none" x1="50" x2="54" y1="551" y2="551"/>
<line clip-path="url(#clipPath2)" fill="none" x1="1358" x2="1354" y1="551" y2="551"/>
<text font-size="13" x="43" y="555" clip-path="url(#clipPath2)" stroke="none" xml:space="preserve">0</text>
<text font-size="13" x="1361" y="555" clip-path="url(#clipPath2)" stroke="none" xml:space="preserve">0</text>
<line clip-path="url(#clipPath2)" fill="none" x1="52" x2="54" y1="514" y2="514"/>
<line clip-path="url(#clipPath2)" fill="none" x1="1356" x2="1354" y1="514" y2="514"/>
<line clip-path="url(#clipPath2)" fill="none" x1="50" x2="54" y1="477" y2="477"/>
<line clip-path="url(#clipPath2)" fill="none" x1="1358" x2="1354" y1="477" y2="477"/>
<text font-size="13" x="19" y="481" clip-path="url(#clipPath2)" stroke="none" xml:space="preserve">20000</text>
<text font-size="13" x="1361" y="481" clip-path="url(#clipPath2)" stroke="none" xml:space="preserve">20000</text>
<line clip-path="url(#clipPath2)" fill="none" x1="52" x2="54" y1="440" y2="440"/>
<line clip-path="url(#clipPath2)" fill="none" x1="1356" x2="1354" y1="440" y2="440"/>
<line clip-path="url(#clipPath2)" fill="none" x1="50" x2="54" y1="404" y2="404"/>
<line clip-path="url(#clipPath2)" fill="none" x1="1358" x2="1354" y1="404" y2="404"/>
<text font-size="13" x="19" y="408" clip-path="url(#clipPath2)" stroke="none" xml:space="preserve">40000</text>
<text font-size="13" x="1361" y="408" clip-path="url(#clipPath2)" stroke="none" xml:space="preserve">40000</text>
<line clip-path="url(#clipPath2)" fill="none" x1="52" x2="54" y1="367" y2="367"/>
<line clip-path="url(#clipPath2)" fill="none" x1="1356" x2="1354" y1="367" y2="367"/>
<line clip-path="url(#clipPath2)" fill="none" x1="50" x2="54" y1="330" y2="330"/>
<line clip-path="url(#clipPath2)" fill="none" x1="1358" x2="1354" y1="330" y2="330"/>
<text font-size="13" x="19" y="334" clip-path="url(#clipPath2)" stroke="none" xml:space="preserve">60000</text>
<text font-size="13" x="1361" y="334" clip-path="url(#clipPath2)" stroke="none" xml:space="preserve">60000</text>
<line clip-path="url(#clipPath2)" fill="none" x1="52" x2="54" y1="293" y2="293"/>
<line clip-path="url(#clipPath2)" fill="none" x1="1356" x2="1354" y1="293" y2="293"/>
<line clip-path="url(#clipPath2)" fill="none" x1="50" x2="54" y1="257" y2="257"/>
<line clip-path="url(#clipPath2)" fill="none" x1="1358" x2="1354" y1="257" y2="257"/>
<text font-size="13" x="19" y="261" clip-path="url(#clipPath2)" stroke="none" xml:space="preserve">80000</text>
<text font-size="13" x="1361" y="261" clip-path="url(#clipPath2)" stroke="none" xml:space="preserve">80000</text>
<line clip-path="url(#clipPath2)" fill="none" x1="52" x2="54" y1="220" y2="220"/>
<line clip-path="url(#clipPath2)" fill="none" x1="1356" x2="1354" y1="220" y2="220"/>
<line clip-path="url(#clipPath2)" fill="none" x1="50" x2="54" y1="183" y2="183"/>
<line clip-path="url(#clipPath2)" fill="none" x1="1358" x2="1354" y1="183" y2="183"/>
<text font-size="13" x="13" y="187" clip-path="url(#clipPath2)" stroke="none" xml:space="preserve">100000</text>
<text font-size="13" x="1361" y="187" clip-path="url(#clipPath2)" stroke="none" xml:space="preserve">100000</text>
<line clip-path="url(#clipPath2)" fill="none" x1="52" x2="54" y1="147" y2="147"/>
<line clip-path="url(#clipPath2)" fill="none" x1="1356" x2="1354" y1="147" y2="147"/>
<line clip-path="url(#clipPath2)" fill="none" x1="50" x2="54" y1="110" y2="110"/>
<line clip-path="url(#clipPath2)" fill="none" x1="1358" x2="1354" y1="110" y2="110"/>
<text font-size="13" x="13" y="114" clip-path="url(#clipPath2)" stroke="none" xml:space="preserve">120000</text>
<text font-size="13" x="1361" y="114" clip-path="url(#clipPath2)" stroke="none" xml:space="preserve">120000</text>
<line clip-path="url(#clipPath2)" fill="none" x1="52" x2="54" y1="73" y2="73"/>
<line clip-path="url(#clipPath2)" fill="none" x1="1356" x2="1354" y1="73" y2="73"/>
<line clip-path="url(#clipPath2)" fill="none" x1="50" x2="54" y1="36" y2="36"/>
<line clip-path="url(#clipPath2)" fill="none" x1="1358" x2="1354" y1="36" y2="36"/>
<text font-size="13" x="13" y="40" clip-path="url(#clipPath2)" stroke="none" xml:space="preserve">140000</text>
<text font-size="13" x="1361" y="40" clip-path="url(#clipPath2)" stroke="none" xml:space="preserve">140000</text>
<line clip-path="url(#clipPath3)" fill="none" x1="488" x2="920" y1="555" y2="555"/>
</g>
</g>
</svg>
