<?xml version="1.0" encoding="UTF-8"?><svg xmlns="http://www.w3.org/2000/svg" xmlns:xlink="http://www.w3.org/1999/xlink" stroke-dasharray="none" shape-rendering="auto" font-family="'Dialog'" width="1408" text-rendering="auto" fill-opacity="1" contentScriptType="text/ecmascript" color-interpolation="auto" color-rendering="auto" preserveAspectRatio="xMidYMid meet" font-size="12" fill="black" stroke="black" image-rendering="auto" stroke-miterlimit="10" zoomAndPan="magnify" version="1.0" stroke-linecap="square" stroke-linejoin="miter" contentStyleType="text/css" font-style="normal" height="579" stroke-width="1" stroke-dashoffset="0" font-weight="normal" stroke-opacity="1">
<!--Generated by the Batik Graphics2D SVG Generator-->
<defs id="genericDefs"/>
<g>
<defs id="defs1">
<clipPath clipPathUnits="userSpaceOnUse" id="clipPath1">
<path d="M67 9 L1360 9 L1360 533 L67 533 L67 9 Z"/>
</clipPath>
<clipPath clipPathUnits="userSpaceOnUse" id="clipPath2">
<path d="M-1 -1 L1409 -1 L1409 580 L-1 580 L-1 -1 Z"/>
</clipPath>
<clipPath clipPathUnits="userSpaceOnUse" id="clipPath3">
<path d="M67 531 L1360 531 L1360 580 L67 580 L67 531 Z"/>
</clipPath>
</defs>
<g font-size="15" fill="white" text-rendering="geometricPrecision" font-family="'Segoe UI'" stroke-linejoin="round" stroke="white" stroke-width="0" stroke-miterlimit="0">
<rect x="68" y="10" clip-path="url(#clipPath1)" width="1291" height="522" stroke="none"/>
</g>
<g font-size="15" stroke-linecap="butt" fill="rgb(204,204,204)" text-rendering="geometricPrecision" font-family="'Segoe UI'" stroke-dasharray="3,3" stroke="rgb(204,204,204)">
<line clip-path="url(#clipPath1)" fill="none" x1="68" x2="1359" y1="532" y2="532"/>
<line clip-path="url(#clipPath1)" fill="none" x1="68" x2="1359" y1="473" y2="473"/>
<line clip-path="url(#clipPath1)" fill="none" x1="68" x2="1359" y1="414" y2="414"/>
<line clip-path="url(#clipPath1)" fill="none" x1="68" x2="1359" y1="355" y2="355"/>
<line clip-path="url(#clipPath1)" fill="none" x1="68" x2="1359" y1="296" y2="296"/>
<line clip-path="url(#clipPath1)" fill="none" x1="68" x2="1359" y1="237" y2="237"/>
<line clip-path="url(#clipPath1)" fill="none" x1="68" x2="1359" y1="178" y2="178"/>
<line clip-path="url(#clipPath1)" fill="none" x1="68" x2="1359" y1="120" y2="120"/>
<line clip-path="url(#clipPath1)" fill="none" x1="68" x2="1359" y1="61" y2="61"/>
<rect x="498" y="57" clip-path="url(#clipPath1)" fill="rgb(0,0,139)" width="430" height="474" stroke="none"/>
<rect x="498" y="57" clip-path="url(#clipPath1)" fill="none" width="430" stroke-dasharray="none" height="474"/>
<rect x="68" y="10" clip-path="url(#clipPath2)" fill="none" width="1291" stroke-dasharray="none" height="522" stroke="black"/>
<line clip-path="url(#clipPath2)" fill="none" x1="69" x2="1358" y1="532" y2="532" stroke-dasharray="none"/>
</g>
<g text-rendering="geometricPrecision" font-size="17" font-family="'Arial'" stroke-linecap="butt">
<line clip-path="url(#clipPath2)" fill="none" x1="66" x2="66" y1="10" y2="532"/>
<line clip-path="url(#clipPath2)" fill="none" x1="1361" x2="1361" y1="10" y2="532"/>
<line clip-path="url(#clipPath2)" fill="none" x1="62" x2="66" y1="532" y2="532"/>
<line clip-path="url(#clipPath2)" fill="none" x1="1365" x2="1361" y1="532" y2="532"/>
<text font-size="13" x="55" y="536" clip-path="url(#clipPath2)" stroke="none" xml:space="preserve">0</text>
<text font-size="13" x="1368" y="536" clip-path="url(#clipPath2)" stroke="none" xml:space="preserve">0</text>
<line clip-path="url(#clipPath2)" fill="none" x1="64" x2="66" y1="520" y2="520"/>
<line clip-path="url(#clipPath2)" fill="none" x1="1363" x2="1361" y1="520" y2="520"/>
<line clip-path="url(#clipPath2)" fill="none" x1="64" x2="66" y1="508" y2="508"/>
<line clip-path="url(#clipPath2)" fill="none" x1="1363" x2="1361" y1="508" y2="508"/>
<line clip-path="url(#clipPath2)" fill="none" x1="64" x2="66" y1="496" y2="496"/>
<line clip-path="url(#clipPath2)" fill="none" x1="1363" x2="1361" y1="496" y2="496"/>
<line clip-path="url(#clipPath2)" fill="none" x1="64" x2="66" y1="484" y2="484"/>
<line clip-path="url(#clipPath2)" fill="none" x1="1363" x2="1361" y1="484" y2="484"/>
<line clip-path="url(#clipPath2)" fill="none" x1="62" x2="66" y1="473" y2="473"/>
<line clip-path="url(#clipPath2)" fill="none" x1="1365" x2="1361" y1="473" y2="473"/>
<text font-size="13" x="31" y="477" clip-path="url(#clipPath2)" stroke="none" xml:space="preserve">10000</text>
<text font-size="13" x="1368" y="477" clip-path="url(#clipPath2)" stroke="none" xml:space="preserve">10000</text>
<line clip-path="url(#clipPath2)" fill="none" x1="64" x2="66" y1="461" y2="461"/>
<line clip-path="url(#clipPath2)" fill="none" x1="1363" x2="1361" y1="461" y2="461"/>
<line clip-path="url(#clipPath2)" fill="none" x1="64" x2="66" y1="449" y2="449"/>
<line clip-path="url(#clipPath2)" fill="none" x1="1363" x2="1361" y1="449" y2="449"/>
<line clip-path="url(#clipPath2)" fill="none" x1="64" x2="66" y1="437" y2="437"/>
<line clip-path="url(#clipPath2)" fill="none" x1="1363" x2="1361" y1="437" y2="437"/>
<line clip-path="url(#clipPath2)" fill="none" x1="64" x2="66" y1="426" y2="426"/>
<line clip-path="url(#clipPath2)" fill="none" x1="1363" x2="1361" y1="426" y2="426"/>
<line clip-path="url(#clipPath2)" fill="none" x1="62" x2="66" y1="414" y2="414"/>
<line clip-path="url(#clipPath2)" fill="none" x1="1365" x2="1361" y1="414" y2="414"/>
<text font-size="13" x="31" y="418" clip-path="url(#clipPath2)" stroke="none" xml:space="preserve">20000</text>
<text font-size="13" x="1368" y="418" clip-path="url(#clipPath2)" stroke="none" xml:space="preserve">20000</text>
<line clip-path="url(#clipPath2)" fill="none" x1="64" x2="66" y1="402" y2="402"/>
<line clip-path="url(#clipPath2)" fill="none" x1="1363" x2="1361" y1="402" y2="402"/>
<line clip-path="url(#clipPath2)" fill="none" x1="64" x2="66" y1="390" y2="390"/>
<line clip-path="url(#clipPath2)" fill="none" x1="1363" x2="1361" y1="390" y2="390"/>
<line clip-path="url(#clipPath2)" fill="none" x1="64" x2="66" y1="378" y2="378"/>
<line clip-path="url(#clipPath2)" fill="none" x1="1363" x2="1361" y1="378" y2="378"/>
<line clip-path="url(#clipPath2)" fill="none" x1="64" x2="66" y1="367" y2="367"/>
<line clip-path="url(#clipPath2)" fill="none" x1="1363" x2="1361" y1="367" y2="367"/>
<line clip-path="url(#clipPath2)" fill="none" x1="62" x2="66" y1="355" y2="355"/>
<line clip-path="url(#clipPath2)" fill="none" x1="1365" x2="1361" y1="355" y2="355"/>
<text font-size="13" x="31" y="359" clip-path="url(#clipPath2)" stroke="none" xml:space="preserve">30000</text>
<text font-size="13" x="1368" y="359" clip-path="url(#clipPath2)" stroke="none" xml:space="preserve">30000</text>
<line clip-path="url(#clipPath2)" fill="none" x1="64" x2="66" y1="343" y2="343"/>
<line clip-path="url(#clipPath2)" fill="none" x1="1363" x2="1361" y1="343" y2="343"/>
<line clip-path="url(#clipPath2)" fill="none" x1="64" x2="66" y1="331" y2="331"/>
<line clip-path="url(#clipPath2)" fill="none" x1="1363" x2="1361" y1="331" y2="331"/>
<line clip-path="url(#clipPath2)" fill="none" x1="64" x2="66" y1="320" y2="320"/>
<line clip-path="url(#clipPath2)" fill="none" x1="1363" x2="1361" y1="320" y2="320"/>
<line clip-path="url(#clipPath2)" fill="none" x1="64" x2="66" y1="308" y2="308"/>
<line clip-path="url(#clipPath2)" fill="none" x1="1363" x2="1361" y1="308" y2="308"/>
<line clip-path="url(#clipPath2)" fill="none" x1="62" x2="66" y1="296" y2="296"/>
<line clip-path="url(#clipPath2)" fill="none" x1="1365" x2="1361" y1="296" y2="296"/>
<text font-size="13" x="31" y="300" clip-path="url(#clipPath2)" stroke="none" xml:space="preserve">40000</text>
<text font-size="13" x="1368" y="300" clip-path="url(#clipPath2)" stroke="none" xml:space="preserve">40000</text>
<line clip-path="url(#clipPath2)" fill="none" x1="64" x2="66" y1="284" y2="284"/>
<line clip-path="url(#clipPath2)" fill="none" x1="1363" x2="1361" y1="284" y2="284"/>
<line clip-path="url(#clipPath2)" fill="none" x1="64" x2="66" y1="273" y2="273"/>
<line clip-path="url(#clipPath2)" fill="none" x1="1363" x2="1361" y1="273" y2="273"/>
<line clip-path="url(#clipPath2)" fill="none" x1="64" x2="66" y1="261" y2="261"/>
<line clip-path="url(#clipPath2)" fill="none" x1="1363" x2="1361" y1="261" y2="261"/>
<line clip-path="url(#clipPath2)" fill="none" x1="64" x2="66" y1="249" y2="249"/>
<line clip-path="url(#clipPath2)" fill="none" x1="1363" x2="1361" y1="249" y2="249"/>
<line clip-path="url(#clipPath2)" fill="none" x1="62" x2="66" y1="237" y2="237"/>
<line clip-path="url(#clipPath2)" fill="none" x1="1365" x2="1361" y1="237" y2="237"/>
<text font-size="13" x="31" y="241" clip-path="url(#clipPath2)" stroke="none" xml:space="preserve">50000</text>
<text font-size="13" x="1368" y="241" clip-path="url(#clipPath2)" stroke="none" xml:space="preserve">50000</text>
<line clip-path="url(#clipPath2)" fill="none" x1="64" x2="66" y1="225" y2="225"/>
<line clip-path="url(#clipPath2)" fill="none" x1="1363" x2="1361" y1="225" y2="225"/>
<line clip-path="url(#clipPath2)" fill="none" x1="64" x2="66" y1="214" y2="214"/>
<line clip-path="url(#clipPath2)" fill="none" x1="1363" x2="1361" y1="214" y2="214"/>
<line clip-path="url(#clipPath2)" fill="none" x1="64" x2="66" y1="202" y2="202"/>
<line clip-path="url(#clipPath2)" fill="none" x1="1363" x2="1361" y1="202" y2="202"/>
<line clip-path="url(#clipPath2)" fill="none" x1="64" x2="66" y1="190" y2="190"/>
<line clip-path="url(#clipPath2)" fill="none" x1="1363" x2="1361" y1="190" y2="190"/>
<line clip-path="url(#clipPath2)" fill="none" x1="62" x2="66" y1="178" y2="178"/>
<line clip-path="url(#clipPath2)" fill="none" x1="1365" x2="1361" y1="178" y2="178"/>
<text font-size="13" x="31" y="182" clip-path="url(#clipPath2)" stroke="none" xml:space="preserve">60000</text>
<text font-size="13" x="1368" y="182" clip-path="url(#clipPath2)" stroke="none" xml:space="preserve">60000</text>
<line clip-path="url(#clipPath2)" fill="none" x1="64" x2="66" y1="167" y2="167"/>
<line clip-path="url(#clipPath2)" fill="none" x1="1363" x2="1361" y1="167" y2="167"/>
<line clip-path="url(#clipPath2)" fill="none" x1="64" x2="66" y1="155" y2="155"/>
<line clip-path="url(#clipPath2)" fill="none" x1="1363" x2="1361" y1="155" y2="155"/>
<line clip-path="url(#clipPath2)" fill="none" x1="64" x2="66" y1="143" y2="143"/>
<line clip-path="url(#clipPath2)" fill="none" x1="1363" x2="1361" y1="143" y2="143"/>
<line clip-path="url(#clipPath2)" fill="none" x1="64" x2="66" y1="131" y2="131"/>
<line clip-path="url(#clipPath2)" fill="none" x1="1363" x2="1361" y1="131" y2="131"/>
<line clip-path="url(#clipPath2)" fill="none" x1="62" x2="66" y1="120" y2="120"/>
<line clip-path="url(#clipPath2)" fill="none" x1="1365" x2="1361" y1="120" y2="120"/>
<text font-size="13" x="31" y="124" clip-path="url(#clipPath2)" stroke="none" xml:space="preserve">70000</text>
<text font-size="13" x="1368" y="124" clip-path="url(#clipPath2)" stroke="none" xml:space="preserve">70000</text>
<line clip-path="url(#clipPath2)" fill="none" x1="64" x2="66" y1="108" y2="108"/>
<line clip-path="url(#clipPath2)" fill="none" x1="1363" x2="1361" y1="108" y2="108"/>
<line clip-path="url(#clipPath2)" fill="none" x1="64" x2="66" y1="96" y2="96"/>
<line clip-path="url(#clipPath2)" fill="none" x1="1363" x2="1361" y1="96" y2="96"/>
<line clip-path="url(#clipPath2)" fill="none" x1="64" x2="66" y1="84" y2="84"/>
<line clip-path="url(#clipPath2)" fill="none" x1="1363" x2="1361" y1="84" y2="84"/>
<line clip-path="url(#clipPath2)" fill="none" x1="64" x2="66" y1="72" y2="72"/>
<line clip-path="url(#clipPath2)" fill="none" x1="1363" x2="1361" y1="72" y2="72"/>
<line clip-path="url(#clipPath2)" fill="none" x1="62" x2="66" y1="61" y2="61"/>
<line clip-path="url(#clipPath2)" fill="none" x1="1365" x2="1361" y1="61" y2="61"/>
<text font-size="13" x="31" y="65" clip-path="url(#clipPath2)" stroke="none" xml:space="preserve">80000</text>
<text font-size="13" x="1368" y="65" clip-path="url(#clipPath2)" stroke="none" xml:space="preserve">80000</text>
<line clip-path="url(#clipPath2)" fill="none" x1="64" x2="66" y1="49" y2="49"/>
<line clip-path="url(#clipPath2)" fill="none" x1="1363" x2="1361" y1="49" y2="49"/>
<line clip-path="url(#clipPath2)" fill="none" x1="64" x2="66" y1="37" y2="37"/>
<line clip-path="url(#clipPath2)" fill="none" x1="1363" x2="1361" y1="37" y2="37"/>
<line clip-path="url(#clipPath2)" fill="none" x1="64" x2="66" y1="25" y2="25"/>
<line clip-path="url(#clipPath2)" fill="none" x1="1363" x2="1361" y1="25" y2="25"/>
<line clip-path="url(#clipPath2)" fill="none" x1="64" x2="66" y1="14" y2="14"/>
<line clip-path="url(#clipPath2)" fill="none" x1="1363" x2="1361" y1="14" y2="14"/>
<line clip-path="url(#clipPath3)" fill="none" x1="498" x2="928" y1="536" y2="536"/>
<text xml:space="preserve" x="681" y="575" clip-path="url(#clipPath3)" stroke="none">tempo(s)</text>
</g>
</g>
</svg>
